<svg width="22" height="22" viewBox="0 0 22 22" fill="none" xmlns="http://www.w3.org/2000/svg">
<circle cx="11" cy="11" r="11" fill="black"/>
<path d="M11 3.4375C9.54131 3.4375 8.14236 4.01696 7.11091 5.04841C6.07946 6.07986 5.5 7.47881 5.5 8.9375C5.5 12.65 10.3469 16.8438 10.5531 17.0225C10.6777 17.129 10.8361 17.1875 11 17.1875C11.1639 17.1875 11.3223 17.129 11.4469 17.0225C11.6875 16.8438 16.5 12.65 16.5 8.9375C16.5 7.47881 15.9205 6.07986 14.8891 5.04841C13.8576 4.01696 12.4587 3.4375 11 3.4375ZM11 15.5719C9.53562 14.1969 6.875 11.2337 6.875 8.9375C6.875 7.84348 7.3096 6.79427 8.08318 6.02068C8.85677 5.2471 9.90598 4.8125 11 4.8125C12.094 4.8125 13.1432 5.2471 13.9168 6.02068C14.6904 6.79427 15.125 7.84348 15.125 8.9375C15.125 11.2337 12.4644 14.2037 11 15.5719ZM11 6.1875C10.4561 6.1875 9.92442 6.34878 9.47218 6.65096C9.01995 6.95313 8.66747 7.38262 8.45933 7.88512C8.25119 8.38762 8.19673 8.94055 8.30284 9.474C8.40895 10.0074 8.67086 10.4974 9.05546 10.882C9.44005 11.2666 9.93005 11.5286 10.4635 11.6347C10.9969 11.7408 11.5499 11.6863 12.0524 11.4782C12.5549 11.27 12.9844 10.9176 13.2865 10.4653C13.5887 10.0131 13.75 9.4814 13.75 8.9375C13.75 8.20815 13.4603 7.50868 12.9445 6.99296C12.4288 6.47723 11.7293 6.1875 11 6.1875ZM11 10.3125C10.7281 10.3125 10.4622 10.2319 10.2361 10.0808C10.01 9.92968 9.83374 9.71494 9.72967 9.46369C9.6256 9.21244 9.59837 8.93597 9.65142 8.66925C9.70447 8.40253 9.83543 8.15753 10.0277 7.96523C10.22 7.77293 10.465 7.64197 10.7318 7.58892C10.9985 7.53587 11.2749 7.5631 11.5262 7.66717C11.7774 7.77124 11.9922 7.94747 12.1433 8.17359C12.2944 8.39971 12.375 8.66555 12.375 8.9375C12.375 9.30217 12.2301 9.65191 11.9723 9.90977C11.7144 10.1676 11.3647 10.3125 11 10.3125Z" fill="white"/>
</svg>
