<svg width="22" height="22" viewBox="0 0 22 22" fill="none" xmlns="http://www.w3.org/2000/svg">
<circle cx="11" cy="11" r="11" fill="black"/>
<path d="M15.5409 12.5782L14.5587 11.596C14.2659 11.3056 13.8707 11.1418 13.4583 11.1401C13.0459 11.1383 12.6493 11.2987 12.3541 11.5866C12.1965 11.7451 11.9887 11.8437 11.7663 11.8654C11.5439 11.8872 11.3209 11.8308 11.1357 11.7059C10.4045 11.2179 9.77629 10.5909 9.28688 9.86062C9.16418 9.67329 9.10979 9.4494 9.13289 9.22665C9.15598 9.00391 9.25515 8.79593 9.41368 8.63776C9.69901 8.34223 9.85732 7.94676 9.85473 7.53597C9.85215 7.12519 9.68886 6.73174 9.39984 6.43982L8.41763 5.45761C8.12357 5.16455 7.72534 5 7.31019 5C6.89503 5 6.49681 5.16455 6.20274 5.45761L5.92014 5.74066C4.44682 7.21399 4.5571 10.3115 7.62248 13.3752C9.47082 15.224 11.3312 15.9981 12.8398 15.9981C13.2839 16.0129 13.7265 15.9392 14.1417 15.7812C14.557 15.6232 14.9367 15.3842 15.2587 15.078L15.5418 14.7949C15.8354 14.5007 16.0002 14.102 16 13.6864C15.9998 13.2708 15.8347 12.8722 15.5409 12.5782ZM14.9096 14.1636L14.6265 14.4467C13.4657 15.6075 10.9035 15.3954 8.25288 12.7443C5.60226 10.0932 5.38974 7.52919 6.55054 6.36839L6.83136 6.08578C6.9578 5.9598 7.12902 5.88906 7.30751 5.88906C7.486 5.88906 7.65721 5.9598 7.78365 6.08578L8.76586 7.068C8.89001 7.19276 8.96047 7.36111 8.96223 7.53711C8.96398 7.71311 8.89688 7.88282 8.77524 8.01003C8.47356 8.31364 8.28537 8.7117 8.24221 9.13753C8.19905 9.56336 8.30354 9.99109 8.53817 10.3491C9.09426 11.1812 9.80935 11.8953 10.6423 12.4501C10.9992 12.6848 11.4258 12.7899 11.8509 12.7479C12.2759 12.7059 12.6737 12.5193 12.9778 12.2193C13.1047 12.0962 13.2749 12.0279 13.4517 12.029C13.6286 12.03 13.7979 12.1005 13.9234 12.2251L14.9056 13.2073C14.9689 13.2697 15.0192 13.344 15.0537 13.4259C15.0882 13.5078 15.1061 13.5958 15.1065 13.6846C15.1069 13.7735 15.0897 13.8616 15.0559 13.9438C15.0221 14.026 14.9724 14.1007 14.9096 14.1636Z" fill="white"/>
</svg>
