<svg width="11" height="3" viewBox="0 0 11 3" fill="none" xmlns="http://www.w3.org/2000/svg">
<path d="M2.75 1.5C2.75 0.671566 2.1344 0 1.375 0C0.615609 0 0 0.671566 0 1.5C0 2.32843 0.615609 3 1.375 3C2.1344 3 2.75 2.32843 2.75 1.5ZM6.875 1.5C6.875 0.671566 6.2594 0 5.5 0C4.7406 0 4.125 0.671566 4.125 1.5C4.125 2.32843 4.7406 3 5.5 3C6.2594 3 6.875 2.32843 6.875 1.5ZM11 1.5C11 0.671566 10.3844 0 9.625 0C8.8656 0 8.25 0.671566 8.25 1.5C8.25 2.32843 8.8656 3 9.625 3C10.3844 3 11 2.32843 11 1.5Z" fill="#A0A0A0"/>
</svg>
